<svg xmlns="http://www.w3.org/2000/svg" height="20" width="20" viewBox="0 0 20 20"><title>20 chat bot</title><g fill="#5f6fff" class="nc-icon-wrapper"><line x1="7" y1="4" x2="7" y2="7" fill="none" stroke="#5f6fff" stroke-linecap="round" stroke-linejoin="round" stroke-width="2"></line><circle cx="7" cy="3" r="1" fill="none" stroke="#5f6fff" stroke-linecap="round" stroke-linejoin="round" stroke-width="2"></circle><path d="m13.475,7.439l-1.414-1.414c-.122-.123-.3-.172-.468-.133-.169.04-.305.164-.359.329l-.707,2.121c-.06.18-.013.378.121.512.095.095.223.146.354.146.053,0,.106-.008.158-.026l2.121-.707c.165-.055.289-.19.329-.359.04-.168-.011-.346-.133-.468Z" fill="#5f6fff" stroke-width="0" data-color="color-2"></path><path d="m8.328,7.028c-.003-.009-.504-.019-.507-.028h-1.822c-1.657,0-3,1.343-3,3v4c0,1.657,1.343,3,3,3h8c1.657,0,3-1.343,3-3v-3.24" fill="none" stroke="#5f6fff" stroke-linecap="round" stroke-linejoin="round" stroke-width="2"></path><circle cx="14.5" cy="5" r="3" fill="#5f6fff" stroke="#5f6fff" stroke-linecap="round" stroke-linejoin="round" stroke-width="2" data-color="color-2"></circle><circle cx="7" cy="11.5" r="1" stroke-width="0" fill="#5f6fff"></circle><circle cx="13" cy="11.5" r="1" stroke-width="0" fill="#5f6fff"></circle><path d="m9,13h2c.276,0,.5.224.5.5h0c0,.828-.672,1.5-1.5,1.5h0c-.828,0-1.5-.672-1.5-1.5h0c0-.276.224-.5.5-.5Z" stroke-width="0" fill="#5f6fff"></path></g></svg>